<?xml version="1.0" encoding="UTF-8"?>
<svg id="Layer_1" xmlns="http://www.w3.org/2000/svg" viewBox="0 0 284.29 31.18">
  <defs>
    <style>
      .cls-1 {
        fill: #006ab9;
      }

      .cls-2 {
        fill: #6d6e70;
      }
    </style>
  </defs>
  <path class="cls-1" d="M143.09,6.78V1.53h6.98v5.24h-6.98ZM150.07,10.24v20.79c-1.92,0-3.57-.68-4.93-2.04-1.36-1.36-2.04-3.01-2.04-4.93v-13.82h6.98ZM107.11,14.64v9.42c0,1.93.68,3.57,2.04,4.93,1.36,1.36,3.01,2.04,4.93,2.04h16.39c1.93,0,3.57-.68,4.93-2.04,1.36-1.36,2.04-3.01,2.04-4.93V1.53h-6.98v6.13h-16.39c-1.93,0-3.57.68-4.93,2.04-1.36,1.36-2.04,3.01-2.04,4.93ZM130.48,23.88c0,.68-.25,1.29-.76,1.82-.5.53-1.11.8-1.82.8h-11.2c-.71,0-1.33-.26-1.84-.78-.52-.52-.78-1.13-.78-1.84v-9.06c0-.74.25-1.36.76-1.87.5-.5,1.13-.76,1.87-.76h13.77v11.68ZM81.61,12.11h11.2c.74,0,1.36.25,1.87.76.5.5.76,1.14.76,1.91v16.26h7.02V14.6c0-1.95-.68-3.61-2.04-4.98-1.36-1.36-3.02-2.04-4.98-2.04h-16.44c-1.95,0-3.61.68-4.98,2.04-1.36,1.36-2.04,3.02-2.04,4.98v16.44h7.02V14.77c0-.71.25-1.33.76-1.87.5-.53,1.13-.8,1.87-.8ZM58.91,7.58h-16.44c-1.95,0-3.61.68-4.98,2.04-1.36,1.36-2.04,3.02-2.04,4.98v9.42c0,1.95.68,3.61,2.04,4.98,1.36,1.36,3.02,2.04,4.98,2.04h16.44c1.93,0,3.57-.68,4.93-2.04,1.36-1.36,2.04-3.02,2.04-4.98v-9.42c0-1.93-.67-3.58-2.02-4.95-1.35-1.38-3-2.07-4.95-2.07ZM56.29,26.5h-11.2c-.74,0-1.36-.25-1.87-.76-.5-.5-.76-1.14-.76-1.91v-9.06c0-.71.25-1.33.76-1.87.5-.53,1.13-.8,1.87-.8h11.2c.71,0,1.33.26,1.84.78.52.52.78,1.15.78,1.89v9.06c0,.71-.25,1.33-.75,1.87-.5.53-1.13.8-1.87.8ZM6.98,1.53H0v22.53c0,1.93.68,3.57,2.04,4.93,1.36,1.36,3.01,2.04,4.93,2.04h16.39c1.93,0,3.57-.68,4.93-2.04,1.36-1.36,2.04-3.01,2.04-4.93v-9.42c0-1.93-.68-3.57-2.04-4.93-1.36-1.36-3.01-2.04-4.93-2.04H6.98V1.53ZM23.37,14.82v9.06c0,.71-.26,1.33-.78,1.84-.52.52-1.13.78-1.84.78h-11.15c-.74,0-1.36-.25-1.87-.76-.5-.5-.76-1.13-.76-1.87v-11.68h13.77c.74,0,1.36.25,1.87.76.5.5.76,1.13.76,1.87Z"/>
  <path class="cls-2" d="M278.78,5.7V0h1.72l1.03,3.89,1.02-3.89h1.73v5.7h-1.07V1.21l-1.13,4.49h-1.11l-1.13-4.49v4.49h-1.07ZM275.21,5.7V.97h-1.69v-.97h4.53v.97h-1.69v4.74h-1.15Z"/>
  <path class="cls-2" d="M267.77,14.96c0-.74-.25-1.36-.76-1.87-.5-.5-1.13-.76-1.87-.76h-13.77v18.84h-6.98V1.68h6.98v6.13h16.39c1.93,0,3.57.68,4.93,2.04,1.36,1.36,2.04,3.01,2.04,4.93v16.39h-6.98V14.96ZM216.9,14.91v9.06c0,.71.25,1.33.76,1.87s1.13.8,1.87.8h11.2c.71,0,1.33-.26,1.84-.78.52-.52.78-1.15.78-1.89v-.49h6.98v.67c0,1.92-.67,3.58-2.02,4.95-1.35,1.38-3,2.07-4.95,2.07h-16.44c-1.95,0-3.61-.68-4.98-2.04-1.36-1.36-2.04-3.02-2.04-4.98v-9.42c0-1.95.68-3.61,2.04-4.98,1.36-1.36,3.02-2.04,4.98-2.04h23.41v1.91c0,.74-.25,1.36-.76,1.87-.5.5-1.13.76-1.87.76h-18.17c-.74,0-1.36.25-1.87.76-.5.5-.76,1.14-.76,1.91ZM199.67,14.91c0-.71-.25-1.33-.76-1.87-.5-.53-1.13-.8-1.87-.8h-11.2c-.74,0-1.36.25-1.87.76-.5.5-.76,1.14-.76,1.91v2.62h13.82c.74,0,1.36-.25,1.87-.76.5-.5.76-1.13.76-1.87ZM183.23,23.98c0,.71.25,1.33.76,1.87.5.53,1.13.8,1.87.8h13.82c.74,0,1.36.25,1.87.76.5.5.76,1.13.76,1.87v1.91h-19.06c-1.95,0-3.61-.68-4.98-2.04-1.36-1.36-2.04-3.02-2.04-4.98v-9.42c0-1.95.68-3.61,2.04-4.98,1.36-1.36,3.02-2.04,4.98-2.04h16.44c1.96,0,3.61.68,4.98,2.04,1.36,1.36,2.04,3.02,2.04,4.98v.31c0,1.96-.68,3.61-2.04,4.98-1.36,1.36-3.02,2.04-4.98,2.04h-16.44v1.91ZM170.39,26.64h-5.29c-.71,0-1.33-.26-1.84-.78s-.78-1.13-.78-1.84v-7.69h5.6v-4.53h-5.6V1.68h-6.98v22.53c0,1.93.68,3.57,2.04,4.93,1.36,1.36,3.01,2.04,4.93,2.04h10.53v-1.91c0-.74-.25-1.36-.76-1.87-.5-.5-1.13-.76-1.87-.76Z"/>
</svg>